<svg height="496pt" viewBox="0 0 496 496" width="496pt" xmlns="http://www.w3.org/2000/svg"><path d="m496 48h-88v96h88l-24-48zm0 0" fill="#f0bc5e"/><path d="m128 272h256v104h-256zm0 0" fill="#f0bc5e"/><path d="m32 312h16v48h-16zm0 0"/><path d="m32 232h16v48h-16zm0 0"/><path d="m32 152h16v48h-16zm0 0"/><path d="m32 72h16v48h-16zm0 0"/><path d="m72 0c-22.054688 0-40 17.945312-40 40h16c0-13.230469 10.769531-24 24-24h24v400h-24c-9.039062 0-17.296875 3.128906-24 8.207031v-32.207031h-16v64c0 22.054688 17.945312 40 40 40h344v-16h-16c-13.230469 0-24-10.769531-24-24s10.769531-24 24-24h16v-432zm296.015625 480h-296.015625c-13.230469 0-24-10.769531-24-24s10.769531-24 24-24h296.015625c-5.03125 6.6875-8.015625 15-8.015625 24s2.984375 17.3125 8.015625 24zm-256.015625-64v-400h288v400zm0 0"/><path d="m128 32v224h256v-224zm240 208h-224v-192h224zm0 0"/><path d="m200 208h112c22.054688 0 40-17.945312 40-40 0-19.800781-14.464844-36.289062-33.9375-39.40625-6.984375-28.105469-32.605469-48.59375-62.0625-48.59375-29.449219 0-55.078125 20.425781-62.097656 48.464844-19.167969 2.941406-33.902344 19.550781-33.902344 39.535156 0 22.054688 17.945312 40 40 40zm0-64c13.230469 0 24 10.769531 24 24h16c0-18.503906-12.625-34.113281-29.71875-38.664062 6.261719-19.464844 24.695312-33.335938 45.71875-33.335938 23.710938 0 44.113281 17.703125 47.457031 41.191406l1 7 7.070313-.128906.914062-.0625c13.03125.238281 23.558594 10.910156 23.558594 24 0 13.230469-10.769531 24-24 24h-112c-13.230469 0-24-10.769531-24-24s10.769531-24 24-24zm0 0"/><path d="m128 272h16v16h-16zm0 0"/><path d="m160 272h224v16h-224zm0 0"/><path d="m128 304h256v16h-256zm0 0"/><path d="m128 336h192v16h-192zm0 0"/><path d="m336 336h48v16h-48zm0 0"/><path d="m128 368h256v16h-256zm0 0"/><path d="m64 448h16v16h-16zm0 0"/><path d="m96 448h216v16h-216zm0 0"/><path d="m328 448h16v16h-16zm0 0"/><g fill="#f0bc5e"><path d="m64 400h-48c-8.824219 0-16-7.175781-16-16v-16c0-8.824219 7.175781-16 16-16h48c8.824219 0 16 7.175781 16 16v16c0 8.824219-7.175781 16-16 16zm0 0"/><path d="m64 320h-48c-8.824219 0-16-7.175781-16-16v-16c0-8.824219 7.175781-16 16-16h48c8.824219 0 16 7.175781 16 16v16c0 8.824219-7.175781 16-16 16zm0 0"/><path d="m64 240h-48c-8.824219 0-16-7.175781-16-16v-16c0-8.824219 7.175781-16 16-16h48c8.824219 0 16 7.175781 16 16v16c0 8.824219-7.175781 16-16 16zm0 0"/><path d="m64 160h-48c-8.824219 0-16-7.175781-16-16v-16c0-8.824219 7.175781-16 16-16h48c8.824219 0 16 7.175781 16 16v16c0 8.824219-7.175781 16-16 16zm0 0"/><path d="m64 80h-48c-8.824219 0-16-7.175781-16-16v-16c0-8.824219 7.175781-16 16-16h48c8.824219 0 16 7.175781 16 16v16c0 8.824219-7.175781 16-16 16zm0 0"/></g></svg>