<?xml version="1.0" encoding="iso-8859-1"?>
<!-- Generator: Adobe Illustrator 19.0.0, SVG Export Plug-In . SVG Version: 6.00 Build 0)  -->
<svg version="1.1" id="Capa_1" xmlns="http://www.w3.org/2000/svg" xmlns:xlink="http://www.w3.org/1999/xlink" x="0px" y="0px"
	 viewBox="0 0 512 512" style="enable-background:new 0 0 512 512;" xml:space="preserve">
<g>
	<g>
		<path d="M466.932,0H153.068C128.218,0,108,20.218,108,45.068V92H42c-23.159,0-42,18.841-42,42v336c0,23.159,18.841,42,42,42h193
			c23.159,0,42-18.841,42-42v-85.286h111.081c5.522,0,10-4.478,10-10c0-24.151-19.096-43.922-42.98-45.019v-18.626h111.831
			C491.782,311.068,512,290.851,512,266V45.068C512,20.218,491.782,0,466.932,0z M257,470c0,12.131-9.869,22-22,22H42
			c-12.131,0-22-9.869-22-22V184h237V470z M257,164H20v-30c0-12.131,9.869-22,22-22h193c12.131,0,22,9.869,22,22V164z M189.898,92
			V75.082c0-3.039,2.472-5.511,5.511-5.511c3.038,0,5.51,2.472,5.51,5.511V92H189.898z M262.103,96.946L262.103,96.946
			c-0.001,1.455-0.58,2.783-1.519,3.778c-2.895-2.23-6.083-4.095-9.502-5.518V74.611c0-3.039,2.472-5.511,5.51-5.511
			c3.039,0,5.511,2.472,5.511,5.511V96.946z M376,364.714h-99v-15.072h68.101h7.908C363.281,349.642,372.131,355.851,376,364.714z
			 M277,329.642v-18.573h58.101v18.573H277z M492,266c0,13.822-11.246,25.068-25.068,25.068H345.101H277v-39.617h144
			c5.522,0,10-4.477,10-10s-4.478-10-10-10H277V134c0-6.288-1.398-12.252-3.885-17.613c5.542-4.718,8.987-11.736,8.987-19.441
			V74.611c0-14.067-11.444-25.511-25.511-25.511c-14.067,0-25.51,11.444-25.51,25.511V92h-10.162V75.082
			c0-14.067-11.443-25.511-25.51-25.511c-14.067,0-25.511,11.444-25.511,25.511V92H128V45.068C128,31.246,139.246,20,153.068,20
			h313.863C480.754,20,492,31.246,492,45.068V266z"/>
	</g>
</g>
<g>
	<g>
		<path d="M471.399,234.38c-1.859-1.86-4.439-2.93-7.069-2.93s-5.21,1.07-7.07,2.93c-1.86,1.86-2.93,4.44-2.93,7.07
			s1.069,5.21,2.93,7.07c1.86,1.86,4.44,2.93,7.07,2.93c2.64,0,5.22-1.07,7.069-2.93c1.87-1.86,2.931-4.44,2.931-7.07
			S473.269,236.24,471.399,234.38z"/>
	</g>
</g>
<g>
	<g>
		<path d="M317.099,264.19c-1.859-1.86-4.439-2.93-7.07-2.93c-2.63,0-5.21,1.07-7.069,2.93c-1.86,1.86-2.931,4.44-2.931,7.07
			s1.07,5.21,2.931,7.07c1.87,1.859,4.439,2.93,7.069,2.93c2.631,0,5.211-1.07,7.07-2.93c1.87-1.86,2.93-4.44,2.93-7.07
			S318.969,266.05,317.099,264.19z"/>
	</g>
</g>
<g>
	<g>
		<path d="M224,128h-57.57c-5.522,0-10,4.477-10,10s4.477,10,10,10H224c5.522,0,10-4.477,10-10S229.522,128,224,128z"/>
	</g>
</g>
<g>
	<g>
		<path d="M86.61,130.93c-1.85-1.86-4.43-2.93-7.06-2.93c-2.64,0-5.22,1.07-7.08,2.93c-1.86,1.86-2.92,4.44-2.92,7.07
			c0,2.64,1.06,5.21,2.92,7.07c1.86,1.86,4.44,2.93,7.08,2.93c2.63,0,5.21-1.07,7.06-2.93c1.87-1.86,2.94-4.44,2.94-7.07
			S88.48,132.79,86.61,130.93z"/>
	</g>
</g>
<g>
	<g>
		<path d="M57.019,130.93c-1.859-1.86-4.43-2.93-7.069-2.93c-2.631,0-5.21,1.07-7.07,2.93s-2.93,4.44-2.93,7.07
			s1.069,5.21,2.93,7.07s4.439,2.93,7.07,2.93c2.64,0,5.21-1.07,7.069-2.93c1.86-1.86,2.931-4.44,2.931-7.07
			S58.88,132.79,57.019,130.93z"/>
	</g>
</g>
<g>
	<g>
		<path d="M116.21,130.93c-1.86-1.86-4.44-2.93-7.07-2.93s-5.21,1.07-7.07,2.93c-1.859,1.86-2.93,4.44-2.93,7.07
			c0,2.64,1.07,5.21,2.93,7.07s4.44,2.93,7.07,2.93s5.21-1.07,7.07-2.93c1.859-1.86,2.93-4.44,2.93-7.07
			S118.07,132.79,116.21,130.93z"/>
	</g>
</g>
<g>
	<g>
		<path d="M305.474,49.1c-5.522,0-10,4.477-10,10v53.357c0,5.523,4.477,10,10,10c5.522,0,10-4.477,10-10V59.1
			C315.474,53.577,310.996,49.1,305.474,49.1z"/>
	</g>
</g>
<g>
	<g>
		<path d="M458,49.1c-5.522,0-10,4.477-10,10v53.357c0,5.523,4.478,10,10,10c5.522,0,10-4.477,10-10V59.1
			C468,53.577,463.522,49.1,458,49.1z"/>
	</g>
</g>
<g>
	<g>
		<path d="M351.145,49.571c-14.067,0-25.511,11.444-25.511,25.511v22.335c0,14.067,11.444,25.511,25.511,25.511
			c14.067,0,25.511-11.444,25.511-25.511V75.082C376.656,61.015,365.212,49.571,351.145,49.571z M356.656,97.417
			c0,3.039-2.472,5.511-5.511,5.511s-5.511-2.472-5.511-5.511V75.082c0-3.039,2.472-5.511,5.511-5.511s5.511,2.472,5.511,5.511
			V97.417z"/>
	</g>
</g>
<g>
	<g>
		<path d="M412.328,49.1c-14.066,0-25.511,11.444-25.511,25.511v22.335c0,14.067,11.444,25.511,25.511,25.511
			c14.067,0,25.511-11.444,25.511-25.511V74.611C437.839,60.544,426.395,49.1,412.328,49.1z M417.839,96.946
			c0,3.039-2.472,5.511-5.511,5.511s-5.511-2.472-5.511-5.511V74.611c0-3.039,2.472-5.511,5.511-5.511s5.511,2.472,5.511,5.511
			V96.946z"/>
	</g>
</g>
<g>
	<g>
		<path d="M427.839,141.397c-5.522,0-10,4.477-10,10v53.356c0,5.523,4.478,10,10,10c5.522,0,10-4.477,10-10v-53.356
			C437.839,145.875,433.361,141.397,427.839,141.397z"/>
	</g>
</g>
<g>
	<g>
		<path d="M458,141.398c-5.522,0-10,4.477-10,10v53.356c0,5.523,4.478,10,10,10c5.522,0,10-4.477,10-10v-53.356
			C468,145.875,463.522,141.398,458,141.398z"/>
	</g>
</g>
<g>
	<g>
		<path d="M320.555,141.869c-14.066,0-25.511,11.444-25.511,25.511v22.335c0,14.067,11.444,25.511,25.511,25.511
			c14.067,0,25.511-11.444,25.511-25.511V167.38C346.065,153.313,334.621,141.869,320.555,141.869z M326.065,189.715
			c0,3.039-2.472,5.511-5.511,5.511s-5.511-2.472-5.511-5.511V167.38c0-3.039,2.472-5.511,5.511-5.511s5.511,2.472,5.511,5.511
			V189.715z"/>
	</g>
</g>
<g>
	<g>
		<path d="M381.737,141.427c-14.066,0-25.511,11.444-25.511,25.511v22.335c0,14.067,11.444,25.511,25.511,25.511
			c14.067,0,25.511-11.444,25.511-25.511v-22.335C407.248,152.871,395.804,141.427,381.737,141.427z M387.248,189.273
			c0,3.039-2.472,5.511-5.511,5.511s-5.511-2.472-5.511-5.511v-22.335c0-3.039,2.472-5.511,5.511-5.511s5.511,2.472,5.511,5.511
			V189.273z"/>
	</g>
</g>
<g>
	<g>
		<path d="M131.495,231.452H66.296c-5.522,0-10,4.477-10,10c0,5.523,4.477,10,10,10h65.199c5.522,0,10-4.477,10-10
			C141.495,235.929,137.017,231.452,131.495,231.452z"/>
	</g>
</g>
<g>
	<g>
		<path d="M215.704,231.452h-49.797c-5.522,0-10,4.477-10,10c0,5.523,4.478,10,10,10h49.797c5.522,0,10-4.477,10-10
			C225.704,235.929,221.226,231.452,215.704,231.452z"/>
	</g>
</g>
<g>
	<g>
		<path d="M215.704,327.442h-18.62c-5.522,0-10,4.478-10,10c0,5.522,4.478,10,10,10h18.62c5.522,0,10-4.478,10-10
			C225.704,331.92,221.227,327.442,215.704,327.442z"/>
	</g>
</g>
<g>
	<g>
		<path d="M157.209,327.455H66.296c-5.522,0-10,4.478-10,10c0,5.522,4.477,10,10,10h90.913c5.522,0,10-4.478,10-10
			C167.209,331.933,162.731,327.455,157.209,327.455z"/>
	</g>
</g>
<g>
	<g>
		<path d="M98.896,279.45h-32.6c-5.522,0-10,4.478-10,10c0,5.522,4.477,10,10,10h32.6c5.522,0,10-4.478,10-10
			C108.896,283.928,104.418,279.45,98.896,279.45z"/>
	</g>
</g>
<g>
	<g>
		<path d="M215.704,279.45h-68.783c-5.523,0-10,4.478-10,10c0,5.522,4.478,10,10,10h68.783c5.522,0,10-4.478,10-10
			C225.704,283.928,221.226,279.45,215.704,279.45z"/>
	</g>
</g>
<g>
	<g>
		<path d="M222.769,426.36c-1.859-1.86-4.429-2.93-7.069-2.93c-2.631,0-5.2,1.07-7.07,2.93c-1.86,1.86-2.93,4.44-2.93,7.07
			s1.069,5.21,2.93,7.07c1.87,1.859,4.439,2.93,7.07,2.93c2.64,0,5.21-1.07,7.069-2.93c1.87-1.86,2.94-4.44,2.94-7.07
			S224.639,428.22,222.769,426.36z"/>
	</g>
</g>
<g>
	<g>
		<path d="M178,423.445H66.296c-5.522,0-10,4.478-10,10c0,5.522,4.478,10,10,10H178c5.522,0,10-4.478,10-10
			C188,427.923,183.522,423.445,178,423.445z"/>
	</g>
</g>
<g>
	<g>
		<path d="M98.896,375.44h-32.6c-5.522,0-10,4.478-10,10c0,5.522,4.477,10,10,10h32.6c5.522,0,10-4.478,10-10
			C108.896,379.918,104.418,375.44,98.896,375.44z"/>
	</g>
</g>
<g>
	<g>
		<path d="M215.704,375.44h-68.783c-5.522,0-10,4.478-10,10c0,5.522,4.478,10,10,10h68.783c5.522,0,10-4.478,10-10
			C225.704,379.918,221.227,375.44,215.704,375.44z"/>
	</g>
</g>
<g>
</g>
<g>
</g>
<g>
</g>
<g>
</g>
<g>
</g>
<g>
</g>
<g>
</g>
<g>
</g>
<g>
</g>
<g>
</g>
<g>
</g>
<g>
</g>
<g>
</g>
<g>
</g>
<g>
</g>
</svg>
