<svg height="499pt" viewBox="0 -1 499.816 499" width="499pt" xmlns="http://www.w3.org/2000/svg" xmlns:xlink="http://www.w3.org/1999/xlink"><linearGradient id="a" gradientUnits="userSpaceOnUse" x1="249.9064" x2="249.9064" y1="496.408" y2=".408"><stop offset="0" stop-color="#9f2fff"/><stop offset="1" stop-color="#0bb1d3"/></linearGradient><path d="m416 48.40625v-48h-344c-19.3125 0-35.472656 13.769531-39.191406 32h-16.808594c-8.824219 0-16 7.179688-16 16v16c0 8.824219 7.175781 16 16 16h16v32h-16c-8.824219 0-16 7.179688-16 16v16c0 8.824219 7.175781 16 16 16h16v32h-16c-8.824219 0-16 7.179688-16 16v16c0 8.824219 7.175781 16 16 16h16v32h-16c-8.824219 0-16 7.179688-16 16v16c0 8.824219 7.175781 16 16 16h16v32h-16c-8.824219 0-16 7.179688-16 16v16c0 8.824219 7.175781 16 16 16h16v56c0 22.058594 17.945312 40 40 40h344v-16h-16c-13.230469 0-24-10.765625-24-24 0-13.230469 10.769531-24 24-24h16v-288h83.816406l-19.191406-48 19.191406-48zm-400.007812 0h48.007812v16h-48zm0 80h48.007812v16h-48zm0 80h48.007812v16h-48zm-.007813 80h48.015625v16h-48zm0 80h48.015625v16h-48zm48.015625 32c8.824219 0 16-7.175781 16-16v-16c0-8.820312-7.175781-16-16-16h-16v-32h16c8.824219 0 16-7.175781 16-16v-16c0-8.820312-7.175781-16-16-16h-16v-32h16c8.824219 0 16-7.175781 16-16v-16c0-8.820312-7.175781-16-16-16h-16v-32h16c8.824219 0 16-7.175781 16-16v-16c0-8.820312-7.175781-16-16-16h-16v-32h16c8.824219 0 16-7.175781 16-16v-16c0-8.820312-7.175781-16-16-16h-14.527344c3.3125-9.285156 12.113282-16 22.527344-16h24v400h-24c-9.039062 0-17.296875 3.128906-24 8.210938v-24.210938zm304.015625 80h-296.015625c-13.230469 0-24-10.765625-24-24 0-13.230469 10.769531-24 24-24h296.015625c-5.03125 6.691406-8.015625 15-8.015625 24s2.984375 17.3125 8.015625 24zm-256.015625-64v-400h288v400zm364.183594-288h-60.183594v-64h60.183594l-12.808594 32zm-348.183594-96v224h256v-224zm240 208h-224v-192h224zm-168-32h112c22.054688 0 40-17.941406 40-40 0-19.796875-14.464844-36.285156-33.9375-39.40625-6.984375-28.105469-32.605469-48.59375-62.0625-48.59375-29.449219 0-55.078125 20.425781-62.097656 48.464844-19.167969 2.945312-33.902344 19.554687-33.902344 39.535156 0 22.058594 17.945312 40 40 40zm0-64c13.230469 0 24 10.769531 24 24h16c0-18.503906-12.625-34.109375-29.71875-38.664062 6.261719-19.460938 24.695312-33.335938 45.71875-33.335938 23.710938 0 44.113281 17.707031 47.457031 41.195312l1 7 7.070313-.128906.914062-.066406c13.03125.242188 23.558594 10.914062 23.558594 24 0 13.234375-10.769531 24-24 24h-112c-13.230469 0-24-10.765625-24-24 0-13.230469 10.769531-24 24-24zm-56 144h-16v-16h16zm16-16h224v16h-224zm-32 32h256v16h-256zm192 48h-192v-16h192zm16-16h48v16h-48zm-208 32h256v16h-256zm-64 80h16v16h-16zm32 0h216v16h-216zm232 0h16v16h-16zm0 0" fill="url(#a)"/></svg>